HIERARCHY
ROOT joint_Root
{
	OFFSET 0.0 0.0 0.0
	CHANNELS 6 Xposition Yposition Zposition Zrotation Xrotation Yrotation 
	JOINT Hips
	{
		OFFSET -0.726466 93.3139 -2.00062
		CHANNELS 6 Xposition Yposition Zposition Zrotation Xrotation Yrotation 
		JOINT Spine
		{
			OFFSET 15.7357 0.0 0.0
			CHANNELS 6 Xposition Yposition Zposition Zrotation Xrotation Yrotation 
			JOINT Chest
			{
				OFFSET 8.98455 -0.406207 0.0
				CHANNELS 6 Xposition Yposition Zposition Zrotation Xrotation Yrotation 
				JOINT Neck
				{
					OFFSET 16.3773 0.0 0.0
					CHANNELS 6 Xposition Yposition Zposition Zrotation Xrotation Yrotation 
					JOINT Head
					{
						OFFSET 6.45672 0.0 0.0
						CHANNELS 6 Xposition Yposition Zposition Zrotation Xrotation Yrotation 
						End Site
						{
							OFFSET 0.0 0.0 0.0
						}
					}
				}
				JOINT Shoulder_L
				{
					OFFSET 12.9942 -0.242716 4.98039
					CHANNELS 6 Xposition Yposition Zposition Zrotation Xrotation Yrotation 
					JOINT UpperArm_L
					{
						OFFSET 5.34809 0.0 0.0
						CHANNELS 6 Xposition Yposition Zposition Zrotation Xrotation Yrotation 
						JOINT LowerArm_L
						{
							OFFSET 24.3286 1.87007e-05 0.0
							CHANNELS 6 Xposition Yposition Zposition Zrotation Xrotation Yrotation 
							JOINT Hand_L
							{
								OFFSET 22.2916 0.0 0.0
								CHANNELS 6 Xposition Yposition Zposition Zrotation Xrotation Yrotation 
								End Site
								{
									OFFSET 0.0 0.0 0.0
								}
							}
						}
					}
				}
				JOINT Shoulder_R
				{
					OFFSET 12.9945 -0.242716 -4.98039
					CHANNELS 6 Xposition Yposition Zposition Zrotation Xrotation Yrotation 
					JOINT UpperArm_R
					{
						OFFSET -5.34813 0.0 0.0
						CHANNELS 6 Xposition Yposition Zposition Zrotation Xrotation Yrotation 
						JOINT LowerArm_R
						{
							OFFSET -24.3289 0.000322201 0.0
							CHANNELS 6 Xposition Yposition Zposition Zrotation Xrotation Yrotation 
							JOINT Hand_R
							{
								OFFSET -22.2915 -0.000108084 0.0
								CHANNELS 6 Xposition Yposition Zposition Zrotation Xrotation Yrotation 
								End Site
								{
									OFFSET 0.0 0.0 0.0
								}
							}
						}
					}
				}
			}
		}
		JOINT UpperLeg_L
		{
			OFFSET -2.19248 -6.46944 0.0
			CHANNELS 6 Xposition Yposition Zposition Zrotation Xrotation Yrotation 
			JOINT LowerLeg_L
			{
				OFFSET 39.0811 0.0 -1.23785e-05
				CHANNELS 6 Xposition Yposition Zposition Zrotation Xrotation Yrotation 
				JOINT Foot_L
				{
					OFFSET 40.9854 0.0 -1.26872e-05
					CHANNELS 6 Xposition Yposition Zposition Zrotation Xrotation Yrotation 
					JOINT Toes_L
					{
						OFFSET 11.7543 0.0 0.0
						CHANNELS 6 Xposition Yposition Zposition Zrotation Xrotation Yrotation 
						End Site
						{
							OFFSET 0.0 0.0 0.0
						}
					}
				}
			}
		}
		JOINT UpperLeg_R
		{
			OFFSET -2.19251 6.46944 0.0
			CHANNELS 6 Xposition Yposition Zposition Zrotation Xrotation Yrotation 
			JOINT LowerLeg_R
			{
				OFFSET -39.0811 -0.00228153 -0.0401928
				CHANNELS 6 Xposition Yposition Zposition Zrotation Xrotation Yrotation 
				JOINT Foot_R
				{
					OFFSET -40.9854 0.0 0.0
					CHANNELS 6 Xposition Yposition Zposition Zrotation Xrotation Yrotation 
					JOINT Toes_R
					{
						OFFSET -11.7543 0.0 0.0
						CHANNELS 6 Xposition Yposition Zposition Zrotation Xrotation Yrotation 
						End Site
						{
							OFFSET 0.0 0.0 0.0
						}
					}
				}
			}
		}
	}
}
MOTION
Frames:	4
Frame Time:	0.0333333
0.000000 0.000000 0.000000 0.000000 0.000000 -0.000000 -1.107120 81.889200 -427.435000 82.337000 4.490400 -9.945660 15.735700 0.000005 -0.000001 80.123500 77.213000 -74.820700 8.984550 -0.406207 -0.000000 17.662700 -3.852310 11.228000 16.377300 -0.000001 -0.000001 2.687050 -0.074171 -1.904480 6.456720 -0.000001 -0.000000 -7.548060 4.501520 -5.219420 12.994200 -0.242716 4.980390 -87.976300 -5.412910 -69.465200 5.348090 -0.000007 -0.000001 -67.493500 20.714000 -8.674880 24.328600 0.000019 0.000005 -6.608450 -3.019100 -65.547600 22.291600 -0.000001 0.000005 1.045150 5.651960 -15.207400 12.994500 -0.242716 -4.980390 88.835300 2.335080 -63.481900 -5.348130 -0.000001 -0.000004 -56.058100 19.043700 -8.295830 -24.328900 0.000322 -0.000009 -1.984800 -1.041920 -62.297700 -22.291500 -0.000108 -0.000004 1.621750 5.631680 -13.463300 -2.192480 -6.469440 -0.000000 -166.464000 -1.097860 -10.530600 39.081100 -0.000007 -0.000012 0.070653 0.002834 92.288800 40.985400 -0.000006 -0.000013 -0.518425 -0.341685 -26.947200 11.754300 -0.000000 0.000003 -0.009839 -0.102442 -20.750500 -2.192510 6.469440 -0.000001 -164.170000 12.518100 139.531000 -39.081100 -0.002282 -0.040193 0.155311 -0.083335 61.284900 -40.985400 0.000008 0.000006 5.025660 -9.864970 -80.965700 -11.754300 -0.000006 -0.000006 -0.005416 -0.065439 -19.236000
0.000000 0.000000 0.000000 0.000000 0.000000 -0.000000 -1.318140 79.728300 -420.879000 82.219700 2.722190 -9.148090 15.735700 0.000005 -0.000001 84.462300 77.094500 -79.296500 8.984550 -0.406207 -0.000000 18.045300 -1.982440 10.668700 16.377300 -0.000001 -0.000001 2.596200 0.417444 -1.301140 6.456720 -0.000001 -0.000000 -6.778040 3.424540 -6.061000 12.994200 -0.242716 4.980390 -87.847200 -5.290250 -67.818900 5.348090 -0.000007 -0.000001 -66.914300 26.083900 -3.654150 24.328600 0.000019 0.000005 -1.904820 -1.496250 -51.841300 22.291600 -0.000001 0.000005 -1.254030 5.658740 -15.918400 12.994500 -0.242716 -4.980390 89.224400 1.679400 -65.208300 -5.348130 -0.000001 -0.000004 -52.404800 17.454200 -21.954300 -24.328900 0.000322 -0.000009 -3.759750 -1.664990 -66.135800 -22.291500 -0.000108 -0.000004 1.873860 5.631820 -13.474200 -2.192480 -6.469440 -0.000000 -168.227000 -2.702440 -23.505000 39.081100 -0.000007 -0.000012 -0.130995 -0.048740 110.414000 40.985400 -0.000006 -0.000013 2.427330 0.781583 -27.919400 11.754300 -0.000000 0.000003 -0.009157 -0.097234 -20.537500 -2.192510 6.469440 -0.000001 -165.303000 12.845600 143.924000 -39.081100 -0.002282 -0.040193 0.152154 -0.066630 65.906300 -40.985400 0.000008 0.000006 3.404840 -8.259580 -88.225900 -11.754300 -0.000006 -0.000006 -0.201810 -0.280452 -19.071300
0.000000 0.000000 0.000000 0.000000 0.000000 -0.000000 -0.933514 78.562800 -414.024000 83.916100 -0.620446 -9.136520 15.735700 0.000005 -0.000001 91.870200 77.455800 -87.638800 8.984550 -0.406207 -0.000000 17.282000 1.155400 8.301500 16.377300 -0.000001 -0.000001 3.193040 -0.022243 -0.270373 6.456720 -0.000001 -0.000000 -6.239260 1.371910 -6.700920 12.994200 -0.242716 4.980390 -87.685900 -5.373010 -66.656500 5.348090 -0.000007 -0.000001 -66.464200 25.039100 3.146390 24.328600 0.000019 0.000005 4.215160 4.251390 -44.832700 22.291600 -0.000001 0.000005 -4.250730 5.659100 -15.955600 12.994500 -0.242716 -4.980390 90.176100 -0.398495 -66.149900 -5.348130 -0.000001 -0.000004 -47.266400 14.373300 -33.437800 -24.328900 0.000322 -0.000009 -6.898720 -2.275490 -71.827800 -22.291500 -0.000108 -0.000004 2.721850 5.625500 -13.006300 -2.192480 -6.469440 -0.000000 -173.608000 -6.391280 -36.968000 39.081100 -0.000007 -0.000012 -0.378669 -0.230830 121.367000 40.985400 -0.000006 -0.000013 7.333270 -1.503530 -31.882500 11.754300 -0.000000 0.000003 -0.008393 -0.091223 -20.291900 -2.192510 6.469440 -0.000001 -169.588000 13.268000 149.816000 -39.081100 -0.002282 -0.040193 0.103808 -0.042713 67.007400 -40.985400 0.000008 0.000006 2.256500 -4.306080 -93.264800 -11.754300 -0.000006 -0.000006 -0.574577 -0.701159 -19.914100
0.000000 0.000000 0.000000 0.000000 0.000000 -0.000000 -0.162439 79.093600 -406.297000 86.015400 -5.097530 -10.006200 15.735700 0.000005 -0.000001 100.764000 77.753400 -97.982200 8.984550 -0.406207 -0.000000 16.224800 4.709730 4.901670 16.377300 -0.000001 -0.000001 3.253430 0.142939 0.787066 6.456720 -0.000001 -0.000000 -5.876680 -0.928437 -6.778960 12.994200 -0.242716 4.980390 -87.629300 -4.979590 -64.501000 5.348090 -0.000007 -0.000001 -62.934400 22.199900 9.882230 24.328600 0.000019 0.000005 1.881890 1.864350 -45.284300 22.291600 -0.000001 0.000005 -3.035200 5.656360 -15.655000 12.994500 -0.242716 -4.980390 90.944500 -2.253320 -67.251800 -5.348130 -0.000001 -0.000004 -42.439900 9.277420 -41.635100 -24.328900 0.000322 -0.000009 -7.473950 -1.840330 -76.241200 -22.291500 -0.000108 -0.000004 3.273410 5.614820 -12.271100 -2.192480 -6.469440 -0.000000 179.715000 -9.365580 -48.257100 39.081100 -0.000007 -0.000012 -0.487500 -0.317153 123.048000 40.985400 -0.000006 -0.000013 9.824010 -4.491260 -39.737200 11.754300 -0.000000 0.000003 -0.008277 -0.090285 -20.253600 -2.192510 6.469440 -0.000001 -175.608000 13.352400 157.471000 -39.081100 -0.002282 -0.040193 0.013184 -0.005208 62.488800 -40.985400 0.000008 0.000006 2.032010 1.337970 -93.712100 -11.754300 -0.000006 -0.000006 -0.875669 -1.016160 -22.472700
